<?xml version="1.0" encoding="UTF-8"?>
<svg width="349px" height="98px" viewBox="0 0 349 98" version="1.1" xmlns="http://www.w3.org/2000/svg" xmlns:xlink="http://www.w3.org/1999/xlink">
    <!-- Generator: Sketch 53.1 (72631) - https://sketchapp.com -->
    <title>Desktop</title>
    <desc>Created with Sketch.</desc>
    <g id="Desktop" stroke="none" stroke-width="1" fill="none" fill-rule="evenodd">
        <path d="M50.484375,42.703125 L65.78125,42.765625 L65.78125,43.46875 L60.03125,43.46875 L69.109375,75.46875 L75,48.265625 C75.0833338,47.7447891 75.125,47.3802094 75.125,47.171875 C75.125,44.7031127 73.1198117,43.46875 69.109375,43.46875 L69.171875,42.765625 L82.484375,42.765625 L82.484375,43.46875 C80.8802003,43.46875 79.4765685,43.7187475 78.2734375,44.21875 C77.0703065,44.7187525 76.2552105,45.9166572 75.828125,47.8125 L67.90625,84.8125 C67.7604159,84.885417 67.5130226,84.9270833 67.1640625,84.9375 C66.8151024,84.9479167 66.5885422,84.9687498 66.484375,85 L57.46875,53.25 L50.171875,85.125 L48.1875,84.75 L37.6875,43.46875 L32,43.46875 L32,42.765625 L48.4375,42.765625 L48.4375,43.46875 L42.625,43.46875 L51.265625,76.875 L57.015625,50.828125 L55.421875,45.0625 C55.0989567,43.9999947 53.4531398,43.46875 50.484375,43.46875 L50.484375,42.703125 Z M87.2,42.765625 L104.66875,42.765625 L104.66875,43.46875 L98.653125,43.46875 L98.653125,84.296875 L104.66875,84.296875 L104.66875,85.0625 L87.2,85.0625 L87.2,84.296875 L93.0125,84.296875 L93.0125,43.46875 L87.2,43.46875 L87.2,42.765625 Z M109.9,42.703125 L126.790625,42.703125 L126.790625,43.46875 L120.9625,43.46875 L120.9625,84.296875 C123.962515,84.223958 126.413011,84.0651054 128.314063,83.8203125 C130.215114,83.5755196 131.926034,83.0546915 133.446875,82.2578125 C134.967716,81.4609335 136.118746,80.2604247 136.9,78.65625 C138.26459,75.8958195 139.311455,71.6510703 140.040625,65.921875 L140.49375,65.921875 L140.49375,85 L109.259375,85.0625 L109.259375,84.359375 L115.7125,84.359375 L115.7125,43.46875 L109.9625,43.46875 L109.9,42.703125 Z M146.35,42.703125 L163.240625,42.703125 L163.240625,43.46875 L157.4125,43.46875 L157.4125,84.296875 C160.412515,84.223958 162.863011,84.0651054 164.764063,83.8203125 C166.665114,83.5755196 168.376034,83.0546915 169.896875,82.2578125 C171.417716,81.4609335 172.568746,80.2604247 173.35,78.65625 C174.71459,75.8958195 175.761455,71.6510703 176.490625,65.921875 L176.94375,65.921875 L176.94375,85 L145.709375,85.0625 L145.709375,84.359375 L152.1625,84.359375 L152.1625,43.46875 L146.4125,43.46875 L146.35,42.703125 Z M181.51875,42.765625 L198.9875,42.765625 L198.9875,43.46875 L192.971875,43.46875 L192.971875,84.296875 L198.9875,84.296875 L198.9875,85.0625 L181.51875,85.0625 L181.51875,84.296875 L187.33125,84.296875 L187.33125,43.46875 L181.51875,43.46875 L181.51875,42.765625 Z M223.09375,43.59375 C223.541669,44.92709 225.169257,49.9608938 227.976563,58.6953125 C230.783868,67.4297312 232.622392,73.1458198 233.492188,75.84375 C234.361984,78.5416802 235.270829,81.3593603 236.21875,84.296875 L241.390625,84.296875 L241.203125,85 L224.3125,85.0625 L224.375,84.296875 L230.328125,84.296875 L226.546875,71.4375 L214.140625,71.4375 L211.125,80.78125 C211.041666,81.1979187 211,81.4739577 211,81.609375 C211,83.4010506 213.239561,84.296875 217.71875,84.296875 L217.71875,85 L203.640625,85 L203.640625,84.296875 C206.932308,84.296875 208.979163,83.0364709 209.78125,80.515625 C210.604171,77.8593617 211.906241,73.6484663 213.6875,67.8828125 C215.468759,62.1171587 217.156242,56.6276302 218.75,51.4140625 C220.343758,46.2004948 221.192708,43.3385442 221.296875,42.828125 C221.338542,42.6927077 221.468749,42.625 221.6875,42.625 C221.937501,42.625 222.205728,42.7187491 222.492188,42.90625 C222.778648,43.0937509 222.979166,43.3229153 223.09375,43.59375 Z M226.234375,70.46875 L220.15625,51.015625 L214.453125,70.46875 L226.234375,70.46875 Z M275.746875,42.890625 L286.871875,42.828125 L286.871875,43.53125 L281.184375,43.53125 L281.184375,84.296875 L287.1375,84.296875 L287.1375,85 L269.91875,85 L269.91875,84.296875 L276.184375,84.296875 L276.184375,45.25 C275.392705,48.1666812 274.197404,52.5208044 272.598438,58.3125 C270.999471,64.1041956 269.330217,69.99997 267.590625,76 C265.851033,82.00003 264.877085,85 264.66875,85 C264.5125,85 263.882297,83.2083512 262.778125,79.625 C261.673953,76.0416488 260.27553,71.3281542 258.582813,65.484375 C256.890096,59.6405958 255.632296,55.2812644 254.809375,52.40625 C253.986455,49.5312356 253.345836,47.2760498 252.8875,45.640625 L252.8875,81.546875 C252.8875,82.2447952 253.127081,82.7916647 253.60625,83.1875 C254.085419,83.5833353 254.692184,83.8567701 255.426563,84.0078125 C256.160941,84.1588549 256.918746,84.2421874 257.7,84.2578125 C258.481254,84.2734376 259.074998,84.2864583 259.48125,84.296875 L259.54375,85.125 L245.153125,85 L245.153125,84.296875 C249.371896,84.296875 251.48125,83.3593844 251.48125,81.484375 L251.54375,46.21875 C251.54375,45.4062459 251.202608,44.8307309 250.520313,44.4921875 C249.838018,44.1536441 249.030734,43.9375005 248.098438,43.84375 C247.166141,43.7499995 246.09584,43.6458339 244.8875,43.53125 L244.8875,42.828125 L257.621875,42.828125 L266.2,74.5 L266.590625,74.5 L275.746875,42.890625 Z M301.884375,42.765625 C304.301054,42.765625 306.29843,43.1874958 307.876563,44.03125 C309.454696,44.8750042 310.832286,46.1354083 312.009375,47.8125 C313.426049,46.7916616 314.681245,45.3437594 315.775,43.46875 L315.8375,58.703125 L315.525,58.5625 C314.85833,55.9062367 314.308857,53.9010484 313.876563,52.546875 C313.444269,51.1927016 312.730734,49.8046946 311.735938,48.3828125 C310.741141,46.9609304 309.400009,45.8125044 307.7125,44.9375 C305.816658,43.9166616 304.025009,43.40625 302.3375,43.40625 C301.379162,43.40625 300.483338,43.5520819 299.65,43.84375 C297.139571,44.8229216 295.582295,46.0624925 294.978125,47.5625 C294.384372,48.9791738 294.0875,50.0885377 294.0875,50.890625 C294.0875,51.8385464 294.405205,52.6041637 295.040625,53.1875 C296.884385,55.0000091 299.165612,56.6041597 301.884375,58 C304.603139,59.3958403 307.238529,60.7499934 309.790625,62.0625 C312.342721,63.3750066 314.308848,64.901033 315.689063,66.640625 C317.069278,68.380217 317.759375,70.7031105 317.759375,73.609375 C317.759375,74.2864617 317.738542,74.8177064 317.696875,75.203125 C317.342707,79.0573109 315.275019,81.9583236 311.49375,83.90625 C310.045826,84.6770872 308.467717,85.0625 306.759375,85.0625 C304.071862,85.0625 301.530221,84.1875088 299.134375,82.4375 C298.623956,82.0833316 298.095316,81.6171904 297.548438,81.0390625 C297.00156,80.4609346 296.59271,80.0104183 296.321875,79.6875 C295.571872,80.2604195 294.790629,81.1223901 293.978125,82.2734375 C293.165621,83.4244849 292.561461,84.33333 292.165625,85 L292.165625,68.046875 L292.603125,68.046875 C292.957294,70.38022 293.569267,72.601552 294.439063,74.7109375 C295.308859,76.820323 296.506764,78.7057209 298.032813,80.3671875 C299.558862,82.0286541 301.379156,83.229163 303.49375,83.96875 C304.556256,84.3541686 305.644786,84.546875 306.759375,84.546875 C309.311471,84.546875 311.441658,83.6510506 313.15,81.859375 C313.910421,81.1093712 314.527602,80.2057345 315.001563,79.1484375 C315.475524,78.0911405 315.7125,77.0572967 315.7125,76.046875 C315.7125,74.8489523 315.327088,73.8437541 314.55625,73.03125 C313.452078,71.8645775 311.738554,70.6718811 309.415625,69.453125 C307.092697,68.2343689 304.472932,66.8333412 301.55625,65.25 C298.639569,63.6666587 296.386987,61.9583425 294.798438,60.125 C293.209888,58.2916575 292.415625,56.1093877 292.415625,53.578125 C292.415625,51.8176995 292.842704,49.8958437 293.696875,47.8125 C294.946882,44.8020683 297.676021,43.1197934 301.884375,42.765625 Z" id="WILLIAMS" fill="#37474F" fill-rule="nonzero"></path>
        <g id="James-2" transform="translate(126.971875, 12.000000)" fill="#37474F" fill-rule="nonzero">
            <path d="M23.9375,0.5 L23.9375,1.203125 L17.53125,1.203125 L17.53125,34.03125 C17.53125,37.0833486 16.3125122,39.4947828 13.875,41.265625 C12.4270761,42.3281303 10.7239681,42.859375 8.765625,42.859375 C8.17187203,42.859375 7.10417437,42.7760425 5.5625,42.609375 C3.45832281,42.3593738 1.83854734,41.1198028 0.703125,38.890625 C0.234372656,37.963537 0,36.9427139 0,35.828125 C0,34.6718692 0.234372656,33.6666709 0.703125,32.8125 C1.39062844,31.6145773 2.43228469,31.015625 3.828125,31.015625 C5.34896594,31.015625 6.37499734,31.6770767 6.90625,33 C7.03125062,33.3854186 7.09375,33.7916645 7.09375,34.21875 C7.09375,34.9166702 6.88021047,35.5364556 6.453125,36.078125 C5.786455,36.8697956 4.93229688,37.2968747 3.890625,37.359375 C3.52603984,37.359375 3.12500219,37.2968756 2.6875,37.171875 C2.41666531,37.1093747 2.13802227,36.9817718 1.8515625,36.7890625 C1.56510273,36.5963532 1.34895906,36.4427089 1.203125,36.328125 C1.0364575,36.5052092 0.953125,36.8072895 0.953125,37.234375 C0.953125,37.6822939 1.16666453,38.3437456 1.59375,39.21875 C2.60417172,41.21876 4.5260275,42.21875 7.359375,42.21875 C8.39063016,42.1770831 9.47916094,41.8828152 10.625,41.3359375 C11.7708391,40.7890598 12.34375,40.1250039 12.34375,39.34375 L12.34375,1.203125 L6.453125,1.203125 L6.453125,0.5 L23.9375,0.5 Z M35.765625,0.703125 C38.1510536,1.54687922 39.5989558,2.95311516 40.109375,4.921875 C40.8802122,7.48438781 41.265625,10.5156075 41.265625,14.015625 C41.265625,14.8906294 41.247396,15.7656206 41.2109375,16.640625 C41.174479,17.5156294 41.1250003,18.5468691 41.0625,19.734375 C40.9999997,20.9218809 40.9427086,22.1900974 40.890625,23.5390625 C40.8385414,24.8880276 40.8125,25.9791625 40.8125,26.8125 C40.8958338,27.4583366 41.4114536,27.78125 42.359375,27.78125 C42.9322945,27.78125 43.421873,27.651043 43.828125,27.390625 C44.8802136,26.6093711 45.4583328,24.9427211 45.5625,22.390625 L46.0625,22.390625 C45.9791662,24.0052164 45.7395853,25.3385364 45.34375,26.390625 C44.9479147,27.4427136 44.2083387,28.1406233 43.125,28.484375 C42.4791634,28.6927094 41.8802111,28.796875 41.328125,28.796875 C39.9531181,28.796875 38.9114619,28.2864634 38.203125,27.265625 C37.3802042,25.9843686 36.8437512,24.6614652 36.59375,23.296875 C35.1458261,26.3906405 33.2500117,28.1614561 30.90625,28.609375 C30.2708302,28.7343756 29.6510447,28.796875 29.046875,28.796875 C27.5156173,28.796875 26.1718808,28.2864634 25.015625,27.265625 C23.2656162,25.6197834 22.390625,23.2500155 22.390625,20.15625 C22.5677092,17.7916548 23.7812387,15.8958405 26.03125,14.46875 C26.8854209,13.9270806 28.4765509,13.3671904 30.8046875,12.7890625 C33.1328241,12.2109346 34.6354133,11.8151052 35.3125,11.6015625 C35.9895867,11.3880198 36.3541664,10.9739614 36.40625,10.359375 C36.6145844,8.24478109 36.71875,6.92187766 36.71875,6.390625 C36.71875,3.17185891 35.4427211,1.27604453 32.890625,0.703125 C31.1301995,0.703125 29.713547,0.867185859 28.640625,1.1953125 C27.567703,1.52343914 26.69792,2.12499562 26.03125,3 C26.1145838,3.35416844 26.4036434,3.66406117 26.8984375,3.9296875 C27.3932316,4.19531383 27.843748,4.44791547 28.25,4.6875 C28.656252,4.92708453 28.8802081,5.26041453 28.921875,5.6875 C28.921875,6.70833844 28.8229177,7.42968539 28.625,7.8515625 C28.4270823,8.27343961 27.9895867,8.51562469 27.3125,8.578125 C26.3437452,8.578125 25.5755237,8.4817718 25.0078125,8.2890625 C24.4401013,8.0963532 24.0364595,7.67708656 23.796875,7.03125 C23.6718744,6.59374781 23.609375,6.19271016 23.609375,5.828125 C23.609375,4.54686859 24.2708267,3.34896391 25.59375,2.234375 C27.333342,0.744784219 29.4426959,0 31.921875,0 C33.1614645,0 34.4427017,0.234372656 35.765625,0.703125 Z M36.28125,12.671875 L35.640625,12.09375 C35.046872,12.4895853 34.2213595,12.8203112 33.1640625,13.0859375 C32.1067655,13.3515638 31.1692749,13.5911448 30.3515625,13.8046875 C29.5338501,14.0182302 28.9270853,14.3229147 28.53125,14.71875 C27.2916605,16.0729234 26.671875,17.9739461 26.671875,20.421875 C26.671875,22.0572998 26.9739553,23.8906148 27.578125,25.921875 C27.7343758,26.4218775 28.0963513,26.856769 28.6640625,27.2265625 C29.2317737,27.596356 29.8281219,27.78125 30.453125,27.78125 C30.9635442,27.78125 31.4531227,27.651043 31.921875,27.390625 C33.0468806,26.6406213 33.9166636,25.7265679 34.53125,24.6484375 C35.1458364,23.5703071 35.5677072,22.3932355 35.796875,21.1171875 C36.0260428,19.8411395 36.1562498,18.4609449 36.1875,16.9765625 C36.2187502,15.4921801 36.2499998,14.0572986 36.28125,12.671875 Z M61.046875,1.40625 C62.2031308,0.677079687 63.4166603,0.3125 64.6875,0.3125 C66.1562573,0.3125 67.3958283,0.848952969 68.40625,1.921875 C69.2083373,2.79687937 69.8020814,3.59114227 70.1875,4.3046875 C70.5729186,5.01823273 70.8541658,5.99478547 71.03125,7.234375 C71.7604203,5.75520094 72.3932265,4.59115008 72.9296875,3.7421875 C73.4661485,2.89322492 74.2499948,2.14323242 75.28125,1.4921875 C76.3125052,0.841142578 77.6041589,0.515625 79.15625,0.515625 C80.1979219,0.515625 81.2656195,0.830726016 82.359375,1.4609375 C83.4531305,2.09114898 84.3645797,2.98697336 85.09375,4.1484375 C85.8229203,5.30990164 86.1875,6.63540922 86.1875,8.125 L86.1875,28.03125 L91.0625,28.03125 L91.0625,28.734375 L77.296875,28.734375 L77.296875,28.03125 L81.90625,28.03125 L81.90625,8 C81.90625,6.11457391 81.6302111,4.51302742 81.078125,3.1953125 C80.5260389,1.87759758 79.8437541,1.21875 79.03125,1.21875 C77.5208258,1.21875 76.1744851,1.68228703 74.9921875,2.609375 C73.8098899,3.53646297 72.8958366,4.69790969 72.25,6.09375 C71.6041634,7.48959031 71.28125,8.82811859 71.28125,10.109375 L71.21875,28.03125 L75.125,28.03125 L75.125,28.734375 L62.578125,28.734375 L62.578125,28.03125 L67.1875,28.03125 L67.1875,10.109375 C67.1875,9.82812359 67.1979166,9.35417 67.21875,8.6875 C67.2395834,8.02083 67.25,7.51562672 67.25,7.171875 C67.25,5.39061609 67.0625019,3.98177602 66.6875,2.9453125 C66.3124981,1.90884898 65.5416725,1.33333391 64.375,1.21875 C62.4166569,1.21875 60.8125063,1.92186797 59.5625,3.328125 C57.2187383,5.85938766 56.046875,8.03644922 56.046875,9.859375 L56.046875,28.03125 L60.140625,28.03125 L60.140625,28.734375 L47.53125,28.734375 L47.53125,28.03125 L51.703125,28.03125 L51.703125,2.359375 L47.46875,2.359375 L47.46875,1.65625 L56.046875,1.65625 L56.046875,6.96875 C56.4739605,6.36458031 56.8437484,5.83593977 57.15625,5.3828125 C57.4687516,4.92968523 57.8255188,4.4531275 58.2265625,3.953125 C58.6276062,3.4531225 59.0651018,2.98437719 59.5390625,2.546875 C60.0130232,2.10937281 60.5156223,1.72916828 61.046875,1.40625 Z M103.546875,1.015625 C104.671881,1.42187703 105.591142,2.01041281 106.304688,2.78125 C107.018233,3.55208719 107.718747,4.5208275 108.40625,5.6875 C109.687506,7.81251063 110.328125,10.6301908 110.328125,14.140625 L95.03125,14.140625 C95.03125,18.734398 95.328122,22.3385286 95.921875,24.953125 C96.3385437,26.5572997 97.7708211,27.6666636 100.21875,28.28125 C100.760419,28.4166673 101.312497,28.484375 101.875,28.484375 C104.125011,28.484375 105.937493,27.6302169 107.3125,25.921875 C108.822924,24.0885325 109.781248,22.1041773 110.1875,19.96875 L110.640625,19.96875 C109.890621,24.2812716 108.119806,27.0520772 105.328125,28.28125 C104.348953,28.7500023 103.197923,28.984375 101.875,28.984375 C100.239575,28.984375 98.6197997,28.5833373 97.015625,27.78125 C92.4947691,25.6354059 90.234375,21.5573217 90.234375,15.546875 C90.234375,14.54687 90.2968744,13.5677131 90.421875,12.609375 C90.6614595,10.869783 91.0390599,9.29948617 91.5546875,7.8984375 C92.0703151,6.49738883 92.8229117,5.2135475 93.8125,4.046875 C94.8020883,2.8802025 96.0624923,1.91667047 97.59375,1.15625 C98.6145884,0.635414063 99.6145784,0.375 100.59375,0.375 C101.312504,0.375 102.296869,0.588539531 103.546875,1.015625 Z M103.796875,2.046875 C102.901037,1.15103719 101.895839,0.703125 100.78125,0.703125 C99.8437453,0.703125 99.0156286,0.999997031 98.296875,1.59375 C96.9010347,2.69792219 96.0078145,4.05728359 95.6171875,5.671875 C95.2265605,7.28646641 95.03125,9.29686297 95.03125,11.703125 L95.03125,13.3125 L105.96875,13.3125 C105.96875,12.9479148 105.979167,12.4010453 106,11.671875 C106.020833,10.9427047 106.03125,10.3802103 106.03125,9.984375 C106.03125,6.27602313 105.286466,3.63021625 103.796875,2.046875 Z M119.609375,0.375 C120.859381,0.375 121.898433,0.570310547 122.726562,0.9609375 C123.554692,1.35156445 124.395829,1.84374703 125.25,2.4375 C126.104171,3.03125297 126.718748,3.328125 127.09375,3.328125 C127.739587,3.328125 128.442705,2.62500703 129.203125,1.21875 L129.84375,1.21875 L129.84375,11.078125 C129.093746,9.14061531 128.346358,7.48959016 127.601562,6.125 C126.856767,4.76040984 125.921881,3.67708734 124.796875,2.875 C123.078116,1.63541047 121.453133,1.015625 119.921875,1.015625 C118.98437,1.015625 118.19792,1.27603906 117.5625,1.796875 C116.239577,2.79688 115.578125,4.01040953 115.578125,5.4375 C115.578125,6.16667031 115.812498,6.76562266 116.28125,7.234375 C117.291672,8.24479672 118.593742,9.1796832 120.1875,10.0390625 C121.781258,10.8984418 123.41145,11.7812455 125.078125,12.6875 C126.7448,13.5937545 128.104161,14.6302025 129.15625,15.796875 C130.208339,16.9635475 130.885415,18.4374911 131.1875,20.21875 C131.28125,20.8958367 131.328125,21.3437489 131.328125,21.5625 C131.328125,22.9895905 130.921879,24.3124939 130.109375,25.53125 C129.296871,26.7500061 128.250006,27.7552044 126.96875,28.546875 C126.031245,29.140628 124.963548,29.4375 123.765625,29.4375 C121.932282,29.4375 120.015635,28.7760483 118.015625,27.453125 C117.74479,27.2864575 117.104172,26.6875052 116.09375,25.65625 C115.968749,25.5312494 115.817709,25.46875 115.640625,25.46875 C115.359374,25.46875 115.09896,25.6302067 114.859375,25.953125 C114.61979,26.2760433 114.335939,26.7682259 114.007812,27.4296875 C113.679686,28.0911491 113.458334,28.5260406 113.34375,28.734375 L112.765625,28.796875 L112.765625,17.59375 C113.526045,19.4166758 114.247392,20.9843684 114.929688,22.296875 C115.611983,23.6093816 116.48437,24.8359318 117.546875,25.9765625 C118.60938,27.1171932 119.848951,27.9062478 121.265625,28.34375 C122.29688,28.6458348 123.130205,28.796875 123.765625,28.796875 C124.82813,28.796875 125.744788,28.5208361 126.515625,27.96875 C127.255212,27.4270806 127.877602,26.7447958 128.382812,25.921875 C128.888023,25.0989542 129.140625,24.2656292 129.140625,23.421875 C129.140625,22.6927047 128.947919,22.0104198 128.5625,21.375 C127.447911,19.6874916 125.135434,17.8151145 121.625,15.7578125 C118.114566,13.7005105 115.812505,12.2682332 114.71875,11.4609375 C113.624995,10.6536418 113.078125,9.30730109 113.078125,7.421875 C113.078125,6.41145328 113.270831,5.47396266 113.65625,4.609375 C114.677088,2.14061266 116.661444,0.729168438 119.609375,0.375 Z" id="James"></path>
        </g>
    </g>
</svg>